<svg xmlns="http://www.w3.org/2000/svg" width="93" height="58.108" viewBox="0 0 93 58.108"><defs><style>.a{fill:none;}.a,.b{stroke:#3c1400;stroke-miterlimit:10;stroke-width:3px;}.b{fill:#fff;}.c{fill:#ff503c;}</style></defs><g transform="translate(1.5 1.5)"><path class="a" d="M1274.867,857.837h31.293a2.715,2.715,0,0,0,2.715-2.715v-7.212a9.22,9.22,0,0,0-4.917-8.155l-2.282-1.2a11.124,11.124,0,0,1-3.92-3.457l-7.288-10.408a6.959,6.959,0,0,0-5.7-2.967h-9.9" transform="translate(-1218.875 -812.167)"/><circle class="b" cx="7.352" cy="7.352" r="7.352" transform="translate(66.38 40.404)"/><circle class="c" cx="3.778" cy="3.778" r="3.778" transform="translate(69.953 43.979)"/><g transform="translate(-9432.036 6735.999)"><circle class="c" cx="11" cy="11" r="11" transform="translate(9432.036 -6712.999)"/><circle class="c" cx="7" cy="7" r="7" transform="translate(9442.036 -6725.999)"/><ellipse class="c" cx="17" cy="16.5" rx="17" ry="16.5" transform="translate(9453.036 -6723.999)"/></g><path class="a" d="M1270.528,857.1V813.2a1.775,1.775,0,0,0-1.774-1.776h-52.442a1.776,1.776,0,0,0-1.775,1.776v42.119a1.776,1.776,0,0,0,1.775,1.775h54.216" transform="translate(-1214.537 -811.427)"/><circle class="b" cx="7.352" cy="7.352" r="7.352" transform="translate(10.218 40.404)"/><circle class="c" cx="3.778" cy="3.778" r="3.778" transform="translate(13.795 43.979)"/></g></svg>