<svg xmlns="http://www.w3.org/2000/svg" width="82.75" height="91.5" viewBox="0 0 82.75 91.5"><defs><style>.a{fill:#ff4f3d;}.b{fill:none;stroke:#3d1400;stroke-miterlimit:10;stroke-width:3px;}</style></defs><g transform="translate(1.5)"><path class="a" d="M1439.176,171.787a9.433,9.433,0,1,1,9.433,9.434,9.434,9.434,0,0,1-9.433-9.434" transform="translate(-1408.587 -162.353)"/><path class="b" d="M1452.642,184.88h-8.461a9.682,9.682,0,0,0-9.793,9.567v29.959a2.849,2.849,0,0,0,2.881,2.815h2.682l1.477,20.23a5.352,5.352,0,0,0,5.389,4.9h3.189a5.351,5.351,0,0,0,5.388-4.9l1.478-20.23h2.682a2.849,2.849,0,0,0,2.881-2.815V194.447A9.682,9.682,0,0,0,1452.642,184.88Z" transform="translate(-1408.587 -162.353)"/><path class="a" d="M1472.343,182.467a5.37,5.37,0,1,1,5.37,5.369,5.37,5.37,0,0,1-5.37-5.369" transform="translate(-1408.587 -162.353)"/><path class="b" d="M1480.812,190.385h-6.5a7.414,7.414,0,0,0-7.525,7.3v22.854a2.181,2.181,0,0,0,2.214,2.147h2.06l1.135,15.432a4.1,4.1,0,0,0,4.14,3.739h2.451a4.1,4.1,0,0,0,4.139-3.739l1.136-15.432h2.06a2.182,2.182,0,0,0,2.214-2.147V197.682A7.414,7.414,0,0,0,1480.812,190.385Z" transform="translate(-1408.587 -162.353)"/><path class="a" d="M1414.143,182.467a5.369,5.369,0,1,1,5.369,5.369,5.369,5.369,0,0,1-5.369-5.369" transform="translate(-1408.587 -162.353)"/><path class="b" d="M1422.612,190.385h-6.5a7.414,7.414,0,0,0-7.525,7.3v22.854a2.182,2.182,0,0,0,2.214,2.147h2.061L1414,238.115a4.1,4.1,0,0,0,4.139,3.739h2.451a4.1,4.1,0,0,0,4.14-3.739l1.135-15.432h2.06a2.181,2.181,0,0,0,2.214-2.147V197.682A7.413,7.413,0,0,0,1422.612,190.385Z" transform="translate(-1408.587 -162.353)"/></g></svg>