<svg xmlns="http://www.w3.org/2000/svg" width="93" height="95.978" viewBox="0 0 93 95.978"><defs><style>.a{fill:none;stroke:#3d1400;stroke-miterlimit:10;stroke-width:3px;}.b{fill:#ff503c;}.c{fill:#3c1400;}</style></defs><g transform="translate(1.5 1.5)"><path class="a" d="M1024.043,226.9v-45a7.5,7.5,0,0,1,7.5-7.5h75a7.5,7.5,0,0,1,7.5,7.5v45a7.5,7.5,0,0,1-7.5,7.5h-64.5l-18,21v-31" transform="translate(-1024.043 -174.402)"/><g transform="translate(11.004 10.946)"><path class="b" d="M1043.853,185.348l2.721,5.514,6.085.884-4.4,4.292,1.039,6.06-5.443-2.861-5.443,2.861,1.039-6.06-4.4-4.292,6.085-.884Z" transform="translate(-1035.047 -185.348)"/><g transform="translate(26)"><path class="b" d="M1069.853,185.348l2.721,5.514,6.085.884-4.4,4.292,1.039,6.06-5.443-2.861-5.443,2.861,1.039-6.06-4.4-4.292,6.085-.884Z" transform="translate(-1061.047 -185.348)"/></g><g transform="translate(52)"><path class="b" d="M1095.853,185.348l2.721,5.514,6.085.884-4.4,4.292,1.039,6.06-5.443-2.861-5.443,2.861,1.039-6.06-4.4-4.292,6.085-.884Z" transform="translate(-1087.047 -185.348)"/></g><g transform="translate(37.998 21.53)"><path class="b" d="M1081.851,206.878l2.721,5.514,6.085.884-4.4,4.292,1.039,6.06-5.443-2.861-5.443,2.861,1.039-6.06-4.4-4.292,6.085-.884Z" transform="translate(-1073.045 -206.878)"/></g><g transform="translate(12.525 21.53)"><path class="b" d="M1056.378,206.878l2.721,5.514,6.085.884-4.4,4.292,1.039,6.06-5.443-2.861-5.442,2.861,1.039-6.06-4.4-4.292,6.085-.884Z" transform="translate(-1047.572 -206.878)"/></g></g><g transform="translate(18.01 66.089)"><path class="c" d="M1063.543,243.949v1.968h-5.186v2.738a3.043,3.043,0,0,1,2.289-.945c2.721,0,3.65,2.049,3.65,3.858a3.745,3.745,0,0,1-4.034,4.081c-2.513,0-3.953-1.392-4.146-3.3h2.177a1.827,1.827,0,0,0,1.937,1.409c1.313,0,1.905-.929,1.905-2.161a1.773,1.773,0,0,0-1.921-2.033,1.744,1.744,0,0,0-1.761,1.232h-2.144v-6.85Z" transform="translate(-1042.053 -240.491)"/><path class="c" d="M1070.07,240.491h2.193l-4.322,18.055h-2.193Z" transform="translate(-1042.053 -240.491)"/><path class="c" d="M1081.623,243.949v1.968h-5.186v2.738a3.041,3.041,0,0,1,2.289-.945c2.721,0,3.649,2.049,3.649,3.858a3.745,3.745,0,0,1-4.033,4.081c-2.514,0-3.954-1.392-4.146-3.3h2.177a1.825,1.825,0,0,0,1.937,1.409c1.312,0,1.9-.929,1.9-2.161a1.773,1.773,0,0,0-1.92-2.033,1.744,1.744,0,0,0-1.761,1.232h-2.145v-6.85Z" transform="translate(-1042.053 -240.491)"/><path class="c" d="M1042.053,261.516h.838l1.133,4.141,1.225-4.141h.837l1.2,4.15,1.117-4.15h.81l-1.539,4.933h-.847l-1.188-3.916-1.188,3.916h-.846Z" transform="translate(-1042.053 -240.491)"/><path class="c" d="M1052.053,261.435a2.035,2.035,0,0,1,1.837.981v-.9h.828v5.041a2.212,2.212,0,0,1-2.36,2.323,2.167,2.167,0,0,1-2.384-1.711h.809a1.532,1.532,0,0,0,1.575,1,1.466,1.466,0,0,0,1.532-1.612v-1.035a2.064,2.064,0,0,1-1.837,1.008,2.374,2.374,0,0,1-2.341-2.566A2.337,2.337,0,0,1,1052.053,261.435Zm.162.711a1.665,1.665,0,0,0-1.665,1.818,1.676,1.676,0,1,0,1.665-1.818Z" transform="translate(-1042.053 -240.491)"/><path class="c" d="M1060.6,261.435a2.143,2.143,0,0,1,2.277,1.665H1062a1.344,1.344,0,0,0-1.4-.972c-.9,0-1.567.639-1.567,1.846,0,1.224.666,1.863,1.567,1.863a1.323,1.323,0,0,0,1.4-.972h.882a2.194,2.194,0,0,1-2.277,1.665,2.552,2.552,0,0,1,0-5.1Z" transform="translate(-1042.053 -240.491)"/><path class="c" d="M1066.1,266.53a2.376,2.376,0,0,1-2.44-2.556,2.347,2.347,0,0,1,2.44-2.539,2.261,2.261,0,0,1,2.367,2.358,4.458,4.458,0,0,1-.027.5H1064.5a1.552,1.552,0,0,0,1.6,1.548,1.356,1.356,0,0,0,1.386-.909h.882A2.218,2.218,0,0,1,1066.1,266.53Zm-1.594-2.907h3.115a1.448,1.448,0,0,0-1.558-1.495A1.528,1.528,0,0,0,1064.508,263.623Z" transform="translate(-1042.053 -240.491)"/><path class="c" d="M1073.158,263.658c0-1.008-.55-1.521-1.378-1.521s-1.413.522-1.413,1.584v2.728h-.819v-4.933h.819v.7a1.823,1.823,0,0,1,1.585-.792,1.914,1.914,0,0,1,2.017,2.116v2.907h-.811Z" transform="translate(-1042.053 -240.491)"/><path class="c" d="M1077.441,266.53a2.376,2.376,0,0,1-2.439-2.556,2.347,2.347,0,0,1,2.439-2.539,2.262,2.262,0,0,1,2.369,2.358,4.2,4.2,0,0,1-.028.5h-3.942a1.549,1.549,0,0,0,1.6,1.548,1.356,1.356,0,0,0,1.387-.909h.883A2.22,2.22,0,0,1,1077.441,266.53Zm-1.592-2.907h3.114a1.447,1.447,0,0,0-1.557-1.495A1.526,1.526,0,0,0,1075.849,263.623Z" transform="translate(-1042.053 -240.491)"/><path class="c" d="M1083.039,266.53a2.548,2.548,0,1,1,2.53-2.556A2.446,2.446,0,0,1,1083.039,266.53Zm0-.72a1.675,1.675,0,0,0,1.693-1.836,1.657,1.657,0,0,0-1.666-1.828,1.844,1.844,0,0,0-.027,3.664Z" transform="translate(-1042.053 -240.491)"/><path class="c" d="M1086.909,266.5a.558.558,0,1,1,.54-.558A.55.55,0,0,1,1086.909,266.5Z" transform="translate(-1042.053 -240.491)"/><path class="c" d="M1091.2,261.435a2.337,2.337,0,0,1,2.341,2.529,2.374,2.374,0,0,1-2.341,2.566,2.133,2.133,0,0,1-1.845-.99v3.25h-.819v-7.274h.819v.909A2.083,2.083,0,0,1,1091.2,261.435Zm-.171.711a1.839,1.839,0,1,0,1.675,1.818A1.668,1.668,0,0,0,1091.031,262.146Z" transform="translate(-1042.053 -240.491)"/><path class="c" d="M1094.622,259.787h.819v6.662h-.819Z" transform="translate(-1042.053 -240.491)"/></g></g></svg>