<svg xmlns="http://www.w3.org/2000/svg" width="93" height="63" viewBox="0 0 93 63"><defs><style>.a{fill:none;stroke:#3d1400;stroke-miterlimit:10;stroke-width:3px;}.b{fill:#ff503c;}</style></defs><g transform="translate(1.5 1.5)"><path class="a" d="M646.739,206.652a12.035,12.035,0,0,1,12-12v-15a3,3,0,0,0-3-3h-84a3,3,0,0,0-3,3v15a12,12,0,0,1,0,24v15a3,3,0,0,0,3,3h84a3,3,0,0,0,3-3v-15A12.035,12.035,0,0,1,646.739,206.652Z" transform="translate(-568.739 -176.652)"/><line class="a" y1="30" x2="30" transform="translate(30 15)"/><circle class="b" cx="6" cy="6" r="6" transform="translate(27 12)"/><circle class="b" cx="6" cy="6" r="6" transform="translate(51 36)"/></g></svg>