<svg xmlns="http://www.w3.org/2000/svg" width="90.983" height="91.5" viewBox="0 0 90.983 91.5"><defs><style>.a{fill:none;stroke:#3d1400;stroke-miterlimit:10;stroke-width:3px;}.b{fill:#ff4f3d;}</style></defs><ellipse class="a" cx="5.647" cy="5.709" rx="5.647" ry="5.709" transform="translate(65.431 78.582)"/><path class="a" d="M1296.8,243.494a5.648,5.648,0,1,1-5.647-5.709A5.678,5.678,0,0,1,1296.8,243.494Z" transform="translate(-1254.757 -159.203)"/><path class="b" d="M1314.555,206.933a19.961,19.961,0,1,1-15.415-23.648,19.961,19.961,0,0,1,15.415,23.648" transform="translate(-1254.757 -159.203)"/><path class="b" d="M1341.461,193.381a14.6,14.6,0,1,1-11.275-17.3,14.6,14.6,0,0,1,11.275,17.3" transform="translate(-1254.757 -159.203)"/><path class="b" d="M1320.015,172.306a13.1,13.1,0,1,1-13.1-13.1,13.1,13.1,0,0,1,13.1,13.1" transform="translate(-1254.757 -159.203)"/><path class="b" d="M1331.108,213.585a9.189,9.189,0,1,1-9.189-9.189,9.189,9.189,0,0,1,9.189,9.189" transform="translate(-1254.757 -159.203)"/><path class="a" d="M1269.957,185.637h73.87l-7.912,32.239a6.668,6.668,0,0,1-6.457,5.106h-50.267" transform="translate(-1254.757 -159.203)"/><path class="a" d="M1269.957,185.637l-.61-2.482a4.256,4.256,0,0,0-4.122-3.26h-10.468" transform="translate(-1254.757 -159.203)"/><path class="a" d="M1325.835,237.785h-36.828a8.01,8.01,0,0,1-7.758-6.135l-11.292-46.013" transform="translate(-1254.757 -159.203)"/></svg>