<svg xmlns="http://www.w3.org/2000/svg" width="167.308" height="49.394" viewBox="0 0 167.308 49.394">
  <g id="Group_2227" data-name="Group 2227" transform="translate(0 0)">
    <g id="Group_2221" data-name="Group 2221" transform="translate(0 0)">
      <path id="Path_1472" data-name="Path 1472" d="M161.111,49.394H6.2A6.2,6.2,0,0,1,0,43.219V6.174A6.2,6.2,0,0,1,6.2,0H161.111a6.2,6.2,0,0,1,6.2,6.174V43.219A6.125,6.125,0,0,1,161.111,49.394Z"/>
    </g>
    <g id="Group_2223" data-name="Group 2223" transform="translate(0 0)">
      <g id="Group_2222" data-name="Group 2222">
        <path id="Path_1473" data-name="Path 1473" d="M161.111.988a5.227,5.227,0,0,1,5.205,5.186V43.219a5.227,5.227,0,0,1-5.205,5.186H6.2A5.227,5.227,0,0,1,.991,43.219V6.174A5.227,5.227,0,0,1,6.2.988H161.111m0-.988H6.2A6.285,6.285,0,0,0,0,6.174V43.219a6.2,6.2,0,0,0,6.2,6.174H161.111a6.2,6.2,0,0,0,6.2-6.174V6.174A6.2,6.2,0,0,0,161.111,0Z" transform="translate(0 0)" fill="#a6a6a6"/>
      </g>
    </g>
    <g id="Group_2226" data-name="Group 2226" transform="translate(21.852 9.261)">
      <g id="XMLID_3_" transform="translate(0 0.37)">
        <g id="XMLID_4_">
          <g id="XMLID_5_">
            <path id="XMLID_7_" d="M35.976,20.908a6.318,6.318,0,0,1,2.964-5.186A6.64,6.64,0,0,0,34,13.005c-2.1-.247-4.075,1.235-5.186,1.235s-2.717-1.235-4.445-1.235a6.766,6.766,0,0,0-5.557,3.334c-2.346,4.075-.617,10.249,1.729,13.583,1.111,1.605,2.47,3.458,4.2,3.458,1.729-.123,2.346-1.111,4.445-1.111s2.593,1.111,4.445,1.111,2.964-1.605,4.075-3.334a11.109,11.109,0,0,0,1.852-3.828A5.618,5.618,0,0,1,35.976,20.908Z" transform="translate(-17.696 -6.584)" fill="#fff"/>
            <path id="XMLID_6_" d="M30.561,12.122A5.886,5.886,0,0,0,31.919,7.8a5.507,5.507,0,0,0-3.951,2.1,5.429,5.429,0,0,0-1.358,4.2A5.582,5.582,0,0,0,30.561,12.122Z" transform="translate(-15.615 -7.8)" fill="#fff"/>
          </g>
        </g>
        <g id="Group_2224" data-name="Group 2224" transform="translate(30.987 11.361)">
          <path id="Path_1474" data-name="Path 1474" d="M51.932,28.314h-5.8l-1.358,4.2H42.3L47.857,17.2H50.45l5.557,15.312h-2.47Zm-5.31-1.852h4.692l-2.223-6.668h-.123Z" transform="translate(-42.3 -16.953)" fill="#fff"/>
          <path id="Path_1475" data-name="Path 1475" d="M64.9,26.2c0,3.458-1.852,5.68-4.692,5.68a3.67,3.67,0,0,1-3.458-1.976h0v5.557H54.4V20.647h2.223v1.729h0A3.863,3.863,0,0,1,60.2,20.4C63.044,20.4,64.9,22.746,64.9,26.2Zm-2.346,0c0-2.223-1.111-3.7-2.964-3.7-1.729,0-2.964,1.482-2.964,3.7s1.235,3.7,2.964,3.7C61.439,29.908,62.55,28.426,62.55,26.2Z" transform="translate(-39.459 -16.202)" fill="#fff"/>
          <path id="Path_1476" data-name="Path 1476" d="M74.9,26.2c0,3.458-1.852,5.68-4.692,5.68a3.67,3.67,0,0,1-3.458-1.976h0v5.557H64.4V20.647h2.223v1.729h0A3.863,3.863,0,0,1,70.2,20.4C73.044,20.4,74.9,22.746,74.9,26.2Zm-2.346,0c0-2.223-1.111-3.7-2.964-3.7-1.729,0-2.964,1.482-2.964,3.7s1.235,3.7,2.964,3.7S72.55,28.426,72.55,26.2Z" transform="translate(-37.11 -16.202)" fill="#fff"/>
          <path id="Path_1477" data-name="Path 1477" d="M79.923,28.237c.123,1.482,1.605,2.47,3.7,2.47,1.976,0,3.334-.988,3.334-2.346,0-1.235-.864-1.852-2.84-2.346l-1.976-.494c-2.84-.741-4.075-1.976-4.075-4.075,0-2.593,2.346-4.445,5.557-4.445s5.433,1.852,5.557,4.445h-2.47c-.123-1.482-1.358-2.47-3.211-2.47s-3.087.988-3.087,2.346c0,1.111.864,1.729,2.84,2.223l1.729.37c3.087.741,4.445,1.976,4.445,4.2,0,2.84-2.346,4.692-5.927,4.692-3.458,0-5.68-1.729-5.8-4.569h2.223Z" transform="translate(-33.987 -17)" fill="#fff"/>
          <path id="Path_1478" data-name="Path 1478" d="M91.828,18.4v2.593h2.1v1.852h-2.1V29.02c0,.988.37,1.358,1.358,1.358h.741V32.23a3.441,3.441,0,0,1-1.235.123c-2.223,0-3.087-.864-3.087-2.964V22.845H88V20.993h1.605V18.4Z" transform="translate(-31.568 -16.671)" fill="#fff"/>
          <path id="Path_1479" data-name="Path 1479" d="M93.8,26.18c0-3.458,2.1-5.68,5.31-5.68s5.31,2.223,5.31,5.68c0,3.581-2.1,5.68-5.31,5.68S93.8,29.638,93.8,26.18Zm8.273,0c0-2.47-1.111-3.828-2.964-3.828s-2.964,1.482-2.964,3.828c0,2.47,1.111,3.828,2.964,3.828S102.073,28.526,102.073,26.18Z" transform="translate(-30.206 -16.178)" fill="#fff"/>
          <path id="Path_1480" data-name="Path 1480" d="M104,20.523h2.223v1.852h0a2.677,2.677,0,0,1,2.717-1.976c.37,0,.617,0,.741.123v2.1a2.123,2.123,0,0,0-.988-.123,2.279,2.279,0,0,0-2.346,2.593v6.668H104Z" transform="translate(-27.811 -16.202)" fill="#fff"/>
          <path id="Path_1481" data-name="Path 1481" d="M119.126,28.426a4.656,4.656,0,0,1-4.816,3.458c-3.211,0-5.31-2.223-5.31-5.68s1.976-5.8,5.186-5.8c3.087,0,5.063,2.1,5.063,5.557V26.7h-7.9v.123a2.991,2.991,0,0,0,2.964,3.211,2.632,2.632,0,0,0,2.593-1.605Zm-7.779-3.334H116.9a2.627,2.627,0,0,0-2.717-2.84A2.872,2.872,0,0,0,111.346,25.092Z" transform="translate(-26.637 -16.202)" fill="#fff"/>
        </g>
      </g>
      <g id="XMLID_2_" transform="translate(32.125)">
        <g id="Group_2225" data-name="Group 2225">
          <path id="Path_1482" data-name="Path 1482" d="M46.34,7.8a2.333,2.333,0,0,1,2.47,2.47,2.333,2.333,0,0,1-2.47,2.47H44.611v2.47H43.5V7.8Zm-1.729,3.951h1.482c.988,0,1.605-.494,1.605-1.482s-.617-1.482-1.605-1.482H44.611Z" transform="translate(-43.5 -7.43)" fill="#fff"/>
          <path id="Path_1483" data-name="Path 1483" d="M48.6,12.04c0-1.852.988-2.84,2.593-2.84a2.536,2.536,0,0,1,2.593,2.84c0,1.852-.988,2.84-2.593,2.84C49.588,15,48.6,13.892,48.6,12.04Zm4.075,0q0-1.852-1.482-1.852c-.988,0-1.482.741-1.482,1.852,0,1.235.494,1.976,1.482,1.976S52.675,13.275,52.675,12.04Z" transform="translate(-42.302 -7.101)" fill="#fff"/>
          <path id="Path_1484" data-name="Path 1484" d="M55.235,14.415h0l-.123.864H54V7.5h1.235v3.087h.123A1.835,1.835,0,0,1,57.087,9.6c1.358,0,2.346,1.111,2.346,2.84s-.864,2.84-2.346,2.84A1.744,1.744,0,0,1,55.235,14.415Zm0-1.976c0,1.111.617,1.852,1.482,1.852.988,0,1.482-.741,1.482-1.852s-.617-1.852-1.482-1.852C55.729,10.587,55.235,11.328,55.235,12.439Z" transform="translate(-41.034 -7.5)" fill="#fff"/>
          <path id="Path_1485" data-name="Path 1485" d="M59.4,8.117c0-.37.247-.617.741-.617a.691.691,0,0,1,.741.617c0,.37-.247.617-.741.617S59.4,8.488,59.4,8.117Zm.123,1.605h1.111V15.28H59.523Z" transform="translate(-39.766 -7.5)" fill="#fff"/>
          <path id="Path_1486" data-name="Path 1486" d="M66.563,13.4A2.27,2.27,0,0,1,64.093,15a2.536,2.536,0,0,1-2.593-2.84c0-1.729.988-2.964,2.593-2.964s2.47,1.111,2.47,2.84v.37H62.611a1.462,1.462,0,0,0,1.482,1.605,1.593,1.593,0,0,0,1.358-.617h1.111Zm-3.828-1.852h2.84a1.4,1.4,0,0,0-1.358-1.482A1.594,1.594,0,0,0,62.735,11.546Z" transform="translate(-39.273 -7.101)" fill="#fff"/>
          <path id="Path_1487" data-name="Path 1487" d="M66.9,9.323h1.111v.864h.123A1.533,1.533,0,0,1,69.617,9.2h.494v1.111a5.347,5.347,0,0,0-.617-.123,1.235,1.235,0,0,0-1.358,1.358V14.88H67.023V9.323Z" transform="translate(-38.005 -7.101)" fill="#fff"/>
          <path id="Path_1488" data-name="Path 1488" d="M70.323,14.116l3.087-3.828v-.123H70.323V9.3h4.322v.741l-2.964,3.7v.123h2.964v.988H70.2v-.741Z" transform="translate(-37.23 -7.077)" fill="#fff"/>
          <path id="Path_1489" data-name="Path 1489" d="M83.351,14.857H82.239l-1.111-4.075H81l-1.111,4.075H78.782L77.3,9.3h1.111l.988,4.2h0l1.111-4.2h1.111l1.111,4.2h.123l.988-4.2h1.111Z" transform="translate(-35.563 -7.077)" fill="#fff"/>
        </g>
      </g>
    </g>
  </g>
</svg>
