<svg id="Group_2220" data-name="Group 2220" xmlns="http://www.w3.org/2000/svg" xmlns:xlink="http://www.w3.org/1999/xlink" width="167.308" height="49.572" viewBox="0 0 167.308 49.572">
  <defs>
    <linearGradient id="linear-gradient" x1="0.908" y1="6.632" x2="-0.383" y2="5.96" gradientUnits="objectBoundingBox">
      <stop offset="0" stop-color="#00a0ff"/>
      <stop offset="0.007" stop-color="#00a1ff"/>
      <stop offset="0.26" stop-color="#00beff"/>
      <stop offset="0.512" stop-color="#00d2ff"/>
      <stop offset="0.76" stop-color="#00dfff"/>
      <stop offset="1" stop-color="#00e3ff"/>
    </linearGradient>
    <linearGradient id="linear-gradient-2" x1="1.077" y1="17.2" x2="-1.307" y2="17.2" gradientUnits="objectBoundingBox">
      <stop offset="0" stop-color="#ffe000"/>
      <stop offset="0.409" stop-color="#ffbd00"/>
      <stop offset="0.775" stop-color="orange"/>
      <stop offset="1" stop-color="#ff9c00"/>
    </linearGradient>
    <linearGradient id="linear-gradient-3" x1="0.864" y1="10.839" x2="-0.499" y2="9.074" gradientUnits="objectBoundingBox">
      <stop offset="0" stop-color="#ff3a44"/>
      <stop offset="1" stop-color="#c31162"/>
    </linearGradient>
    <linearGradient id="linear-gradient-4" x1="-0.186" y1="13.614" x2="0.423" y2="12.822" gradientUnits="objectBoundingBox">
      <stop offset="0" stop-color="#32a071"/>
      <stop offset="0.068" stop-color="#2da771"/>
      <stop offset="0.476" stop-color="#15cf74"/>
      <stop offset="0.801" stop-color="#06e775"/>
      <stop offset="1" stop-color="#00f076"/>
    </linearGradient>
  </defs>
  <g id="Group_2218" data-name="Group 2218" transform="translate(0 0)">
    <g id="Group_2213" data-name="Group 2213" transform="translate(0 0)">
      <path id="Path_1453" data-name="Path 1453" d="M161.111,49.573H6.2a6.215,6.215,0,0,1-6.2-6.2V6.2A6.215,6.215,0,0,1,6.2,0H161.111a6.215,6.215,0,0,1,6.2,6.2V43.376A6.136,6.136,0,0,1,161.111,49.573Z"/>
    </g>
    <g id="Group_2215" data-name="Group 2215">
      <g id="Group_2214" data-name="Group 2214">
        <path id="Path_1454" data-name="Path 1454" d="M161.111.991A5.237,5.237,0,0,1,166.316,6.2V43.376a5.237,5.237,0,0,1-5.205,5.205H6.2A5.237,5.237,0,0,1,.991,43.376V6.2A5.237,5.237,0,0,1,6.2.991H161.111m0-.991H6.2A6.3,6.3,0,0,0,0,6.2V43.376a6.215,6.215,0,0,0,6.2,6.2H161.111a6.215,6.215,0,0,0,6.2-6.2V6.2a6.215,6.215,0,0,0-6.2-6.2Z" transform="translate(0 0)" fill="#a6a6a6"/>
      </g>
    </g>
    <path id="Path_1455" data-name="Path 1455" d="M73.411,22.725a5.035,5.035,0,0,0-5.146,5.146,5.108,5.108,0,0,0,5.146,5.146,5.035,5.035,0,0,0,5.146-5.146A4.965,4.965,0,0,0,73.411,22.725Zm0,8.138a2.971,2.971,0,0,1-2.872-3.111,2.971,2.971,0,0,1,2.872-3.111,2.9,2.9,0,0,1,2.872,3.111A2.971,2.971,0,0,1,73.411,30.862Zm-11.13-8.138a5.035,5.035,0,0,0-5.146,5.146,5.108,5.108,0,0,0,5.146,5.146,5.035,5.035,0,0,0,5.146-5.146A4.965,4.965,0,0,0,62.282,22.725Zm0,8.138a2.971,2.971,0,0,1-2.872-3.111,2.971,2.971,0,0,1,2.872-3.111,2.9,2.9,0,0,1,2.872,3.111A2.971,2.971,0,0,1,62.282,30.862ZM49,24.28v2.154h5.146a4.525,4.525,0,0,1-1.2,2.752A5.3,5.3,0,0,1,49,30.743,5.572,5.572,0,0,1,43.374,25,5.645,5.645,0,0,1,49,19.254a5.934,5.934,0,0,1,3.949,1.556L54.5,19.254A7.669,7.669,0,0,0,49.118,17.1,8.073,8.073,0,0,0,41.1,25a8.073,8.073,0,0,0,8.018,7.9,6.887,6.887,0,0,0,5.5-2.274A7.2,7.2,0,0,0,56.538,25.6a4.487,4.487,0,0,0-.12-1.316Zm54.331,1.675a4.65,4.65,0,0,0-4.308-3.231,4.82,4.82,0,0,0-4.787,5.146,5.008,5.008,0,0,0,5.026,5.146,4.909,4.909,0,0,0,4.189-2.274l-1.675-1.2a2.917,2.917,0,0,1-2.513,1.436,2.6,2.6,0,0,1-2.513-1.556l6.821-2.872Zm-6.941,1.675a2.907,2.907,0,0,1,2.633-2.992,2.117,2.117,0,0,1,1.915,1.077Zm-5.625,4.907h2.274V17.579H90.764ZM87.174,23.8h0a3.94,3.94,0,0,0-2.752-1.2,5.142,5.142,0,0,0-4.907,5.146,4.955,4.955,0,0,0,4.907,5.026,3.436,3.436,0,0,0,2.633-1.2h.12V32.3c0,1.915-1.077,2.992-2.752,2.992a2.659,2.659,0,0,1-2.513-1.8l-1.915.838a4.937,4.937,0,0,0,4.548,2.992c2.633,0,4.787-1.556,4.787-5.266v-9.1H87.174V23.8Zm-2.633,7.061a2.971,2.971,0,0,1-2.872-3.111,2.971,2.971,0,0,1,2.872-3.111,2.879,2.879,0,0,1,2.752,3.111A2.879,2.879,0,0,1,84.541,30.862Zm29.2-13.284h-5.385V32.538h2.274V26.913h3.111a4.673,4.673,0,1,0,0-9.334Zm.12,7.18H110.63V19.613h3.231a2.629,2.629,0,0,1,2.633,2.513A2.739,2.739,0,0,1,113.861,24.759ZM127.623,22.6a4.022,4.022,0,0,0-3.949,2.274l2.034.838a2.114,2.114,0,0,1,2.034-1.077,2.249,2.249,0,0,1,2.393,1.915v.12a4.747,4.747,0,0,0-2.274-.6c-2.154,0-4.308,1.2-4.308,3.351a3.506,3.506,0,0,0,3.71,3.351,3.368,3.368,0,0,0,2.872-1.436h.12v1.2h2.154V26.793A4.529,4.529,0,0,0,127.623,22.6Zm-.239,8.257c-.718,0-1.8-.359-1.8-1.316,0-1.2,1.316-1.556,2.393-1.556a4.628,4.628,0,0,1,2.034.479A2.787,2.787,0,0,1,127.384,30.862Zm12.566-7.9-2.513,6.462h-.12l-2.633-6.462H132.29l3.949,9.1-2.274,5.026h2.274l6.1-14.121Zm-20.1,9.574h2.274V17.579h-2.274Z" transform="translate(13.835 5.068)" fill="#fff"/>
    <g id="Group_2217" data-name="Group 2217" transform="translate(11.967 9.407)">
      <path id="Path_1456" data-name="Path 1456" d="M10.479,7.5A2.34,2.34,0,0,0,10,9.175V35.623a2.367,2.367,0,0,0,.6,1.675l.12.12L25.557,22.579v-.239L10.479,7.5Z" transform="translate(-10 -7.078)" fill="url(#linear-gradient)"/>
      <path id="Path_1457" data-name="Path 1457" d="M27.807,25.972,22.9,21.066v-.359L27.807,15.8l.12.12L33.79,19.27c1.675.957,1.675,2.513,0,3.47l-5.984,3.231Z" transform="translate(-7.462 -5.445)" fill="url(#linear-gradient-2)"/>
      <path id="Path_1458" data-name="Path 1458" d="M30.385,25.026,25.359,20,10.4,34.959c.6.6,1.436.6,2.513.12L30.385,25.026" transform="translate(-9.921 -4.619)" fill="url(#linear-gradient-3)"/>
      <path id="Path_1459" data-name="Path 1459" d="M30.385,17.5,12.913,7.565a1.94,1.94,0,0,0-2.513.12L25.359,22.524Z" transform="translate(-9.921 -7.142)" fill="url(#linear-gradient-4)"/>
      <g id="Group_2216" data-name="Group 2216" transform="translate(0 20.288)">
        <path id="Path_1460" data-name="Path 1460" d="M30.266,24.1,12.913,33.913a1.957,1.957,0,0,1-2.393,0h0l-.12.12h0l.12.12h0a1.957,1.957,0,0,0,2.393,0L30.266,24.1Z" transform="translate(-9.921 -24.1)" opacity="0.2"/>
        <path id="Path_1461" data-name="Path 1461" d="M10.479,32.575A2.34,2.34,0,0,1,10,30.9v.12a2.367,2.367,0,0,0,.6,1.675v-.12Z" transform="translate(-10 -22.762)" opacity="0.12"/>
      </g>
      <path id="Path_1462" data-name="Path 1462" d="M32.984,21.556,27,24.907l.12.12,5.864-3.351A1.989,1.989,0,0,0,34.18,20h0C34.18,20.6,33.7,21.077,32.984,21.556Z" transform="translate(-6.656 -4.619)" opacity="0.12"/>
      <path id="Path_1463" data-name="Path 1463" d="M12.992,7.689,36.328,20.973c.718.479,1.2.957,1.2,1.556h0a1.989,1.989,0,0,0-1.2-1.675L12.992,7.569C11.316,6.612,10,7.33,10,9.245v.12C10,7.569,11.316,6.732,12.992,7.689Z" transform="translate(-10 -7.147)" fill="#fff" opacity="0.25"/>
    </g>
  </g>
  <g id="Group_2219" data-name="Group 2219" transform="translate(52.034 8.605)">
    <path id="Path_1464" data-name="Path 1464" d="M42.357,14.18H41.4V7h2.393a2.521,2.521,0,0,1,1.556.6,1.93,1.93,0,0,1,.718,1.556,2.107,2.107,0,0,1-.718,1.556,2.521,2.521,0,0,1-1.556.6H42.238V14.18Zm0-3.83h1.556a1.359,1.359,0,0,0,.957-.359,1.293,1.293,0,0,0,.359-.838,1.293,1.293,0,0,0-.359-.838,1.359,1.359,0,0,0-.957-.359H42.357Z" transform="translate(-41.4 -6.88)" fill="#fff" stroke="#fff" stroke-miterlimit="10" stroke-width="0.2"/>
    <path id="Path_1465" data-name="Path 1465" d="M52.243,13.243A3.71,3.71,0,0,1,45.9,10.61a3.71,3.71,0,1,1,7.42,0A3.519,3.519,0,0,1,52.243,13.243Zm-4.548-.6a2.824,2.824,0,0,0,1.915.838,2.381,2.381,0,0,0,1.915-.838,2.887,2.887,0,0,0,.838-2.034,2.465,2.465,0,0,0-.838-2.034,2.824,2.824,0,0,0-1.915-.838,2.381,2.381,0,0,0-1.915.838,2.887,2.887,0,0,0-.838,2.034A2.465,2.465,0,0,0,47.7,12.644Z" transform="translate(-40.515 -6.9)" fill="#fff" stroke="#fff" stroke-miterlimit="10" stroke-width="0.2"/>
    <path id="Path_1466" data-name="Path 1466" d="M53.2,14.18V7h2.633a2.043,2.043,0,0,1,2.034,2.034,2.816,2.816,0,0,1-.239.957,1.226,1.226,0,0,1-.718.6h0a2.147,2.147,0,0,1,.838.6,1.463,1.463,0,0,1,.359,1.077,1.982,1.982,0,0,1-.6,1.436,2.521,2.521,0,0,1-1.556.6H53.2Zm.838-4.069h1.675a1.086,1.086,0,0,0,.838-.359,1.034,1.034,0,0,0,.359-.718,1.293,1.293,0,0,0-.359-.838,1.086,1.086,0,0,0-.838-.359H54.038v2.274Zm0,3.231h1.915a1.227,1.227,0,0,0,1.2-1.2,1.293,1.293,0,0,0-.359-.838,1.086,1.086,0,0,0-.838-.359h-1.8v2.393Z" transform="translate(-39.079 -6.88)" fill="#fff" stroke="#fff" stroke-miterlimit="10" stroke-width="0.2"/>
    <path id="Path_1467" data-name="Path 1467" d="M58.3,14.18V7h.957v7.18Z" transform="translate(-38.075 -6.88)" fill="#fff" stroke="#fff" stroke-miterlimit="10" stroke-width="0.2"/>
    <path id="Path_1468" data-name="Path 1468" d="M64.689,7.838H61.457v2.274h2.992v.838H61.457v2.274h3.231v.957H60.5V7h4.189Z" transform="translate(-37.643 -6.88)" fill="#fff" stroke="#fff" stroke-miterlimit="10" stroke-width="0.2"/>
    <path id="Path_1469" data-name="Path 1469" d="M65.2,14.18V7h2.393a2.52,2.52,0,0,1,1.556.6,1.93,1.93,0,0,1,.718,1.556,1.8,1.8,0,0,1-.479,1.316,2.483,2.483,0,0,1-1.2.718h0l2.034,2.872H69.149l-1.915-2.872H66.157V14.18Zm.838-3.83h1.436A1.235,1.235,0,0,0,68.79,9.034a1.086,1.086,0,0,0-.359-.838,1.359,1.359,0,0,0-.957-.359H65.918v2.513Z" transform="translate(-36.718 -6.88)" fill="#fff" stroke="#fff" stroke-miterlimit="10" stroke-width="0.2"/>
    <path id="Path_1470" data-name="Path 1470" d="M69.8,14.18v-.957l3.83-5.385h-3.59V7h4.787v.957L71,13.343h3.829v.838Z" transform="translate(-35.813 -6.88)" fill="#fff" stroke="#fff" stroke-miterlimit="10" stroke-width="0.2"/>
    <path id="Path_1471" data-name="Path 1471" d="M76.7,14.18v-.957l3.829-5.385H76.82V7h4.787v.957l-3.83,5.385h3.83v.838Z" transform="translate(-34.456 -6.88)" fill="#fff" stroke="#fff" stroke-miterlimit="10" stroke-width="0.2"/>
  </g>
</svg>
