<svg id="Warstwa_2" data-name="Warstwa 2" xmlns="http://www.w3.org/2000/svg" width="135.23" height="41.374" viewBox="0 0 135.23 41.374">
  <g id="图层_1" data-name="图层 1">
    <path id="Path_1511" data-name="Path 1511" d="M125.7,0H7.531A14.039,14.039,0,0,0,5.487.181a6.682,6.682,0,0,0-1.9.64A6.758,6.758,0,0,0,.818,3.7,6.924,6.924,0,0,0,.2,5.638,13.721,13.721,0,0,0,0,7.682V33.705a13.638,13.638,0,0,0,.184,2.044A6.9,6.9,0,0,0,.8,37.7a6.51,6.51,0,0,0,1.179,1.648,6.27,6.27,0,0,0,1.622,1.2,6.723,6.723,0,0,0,1.9.647,14.038,14.038,0,0,0,2.045.181H127.705a13.764,13.764,0,0,0,2-.181,6.669,6.669,0,0,0,1.908-.647,6.141,6.141,0,0,0,1.622-1.2,6.711,6.711,0,0,0,1.186-1.648,6.9,6.9,0,0,0,.62-1.947,14.608,14.608,0,0,0,.184-2.044V7.682a14.692,14.692,0,0,0-.184-2.044,6.6,6.6,0,0,0-1.806-3.6,6.475,6.475,0,0,0-1.622-1.2,6.655,6.655,0,0,0-1.908-.64,13.766,13.766,0,0,0-2-.195h-2Z" fill="#b6b6b6"/>
    <path id="Path_1512" data-name="Path 1512" d="M8.872,40.922H7.966a13.232,13.232,0,0,1-1.874-.167,5.913,5.913,0,0,1-1.656-.564,5.336,5.336,0,0,1-1.4-1.037,5.413,5.413,0,0,1-1.022-1.392,6.023,6.023,0,0,1-.545-1.7,12.987,12.987,0,0,1-.17-1.914c0-.216,0-.932,0-.932V8.112A12.831,12.831,0,0,1,1.47,6.2a5.649,5.649,0,0,1,.545-1.7,5.682,5.682,0,0,1,2.42-2.477,5.9,5.9,0,0,1,1.656-.557A12.984,12.984,0,0,1,7.966,1.3h120.14a12.73,12.73,0,0,1,1.861.167,5.9,5.9,0,0,1,1.677.564,5.463,5.463,0,0,1,1.363,1.037A5.806,5.806,0,0,1,134.035,4.5a6.215,6.215,0,0,1,.532,1.684,13.488,13.488,0,0,1,.177,1.934v26a13.146,13.146,0,0,1-.177,1.893,5.918,5.918,0,0,1-.538,1.7,5.648,5.648,0,0,1-2.42,2.463,5.859,5.859,0,0,1-1.67.564,12.971,12.971,0,0,1-1.867.167H8.872Z" transform="translate(-0.414 -0.414)"/>
    <path id="Path_1513" data-name="Path 1513" d="M69.9,36.221H65.21l-1.165,3.142H62L66.6,27.64h1.942l4.7,11.723H71.072ZM65.81,34.626h3.5l-1.268-3.333c-.17-.463-.341-.981-.5-1.54-.157.5-.32,1-.5,1.52Z" transform="translate(-19.743 -8.27)" fill="#fff"/>
    <path id="Path_1514" data-name="Path 1514" d="M79.831,34.087c0-.647,0-1.363-.061-2.133h1.874a9.688,9.688,0,0,1,.143,1.111,3.531,3.531,0,0,1,2.672-1.275,3.013,3.013,0,0,1,2.822,1.833,5.541,5.541,0,0,1,.457,2.4,5.9,5.9,0,0,1-.525,2.617,3.694,3.694,0,0,1-1.459,1.643,4.205,4.205,0,0,1-2.167.559,5.453,5.453,0,0,1-1.758-.3v3.605l-2,.17Zm5.255,4.464a3.967,3.967,0,0,0,.613-2.4,3.565,3.565,0,0,0-.5-2.126,1.629,1.629,0,0,0-1.363-.682,2.16,2.16,0,0,0-1.077.273,4.212,4.212,0,0,0-.941.736v4.676a2.829,2.829,0,0,0,.682.232,3.837,3.837,0,0,0,.784.089A2.045,2.045,0,0,0,85.086,38.551Z" transform="translate(-25.401 -9.494)" fill="#fff"/>
    <path id="Path_1515" data-name="Path 1515" d="M93.308,34.087c0-.647,0-1.363-.068-2.133h1.881a9.691,9.691,0,0,1,.143,1.111,3.531,3.531,0,0,1,2.672-1.275,3.033,3.033,0,0,1,2.822,1.833,5.643,5.643,0,0,1,.457,2.413,5.991,5.991,0,0,1-.525,2.617A3.735,3.735,0,0,1,99.211,40.3a4.205,4.205,0,0,1-2.167.559,5.452,5.452,0,0,1-1.758-.3V44.16l-2,.17Zm5.255,4.464a3.967,3.967,0,0,0,.613-2.4,3.51,3.51,0,0,0-.511-2.126,1.609,1.609,0,0,0-1.363-.682,2.161,2.161,0,0,0-1.077.273,4.212,4.212,0,0,0-.941.736v4.676a2.686,2.686,0,0,0,.682.232,3.892,3.892,0,0,0,.784.089,2.092,2.092,0,0,0,1.813-.8Z" transform="translate(-29.691 -9.493)" fill="#fff"/>
    <path id="Path_1516" data-name="Path 1516" d="M109.22,38.726a4.859,4.859,0,0,1-1.99-2.045,6.754,6.754,0,0,1-.682-3.156,6.611,6.611,0,0,1,.8-3.36,5.173,5.173,0,0,1,2.181-2.045,6.816,6.816,0,0,1,3.094-.682,8.376,8.376,0,0,1,3.646.832l-.552,1.52a7.02,7.02,0,0,0-3.04-.763,4.239,4.239,0,0,0-2.14.525,3.551,3.551,0,0,0-1.431,1.534,5.357,5.357,0,0,0-.511,2.44,5.834,5.834,0,0,0,.4,2.229,3.265,3.265,0,0,0,1.275,1.534,3.728,3.728,0,0,0,2.133.573,6.734,6.734,0,0,0,1.165-.1,5.8,5.8,0,0,0,1.091-.279V35.107h-2.726V33.553h4.648v4.935a10.523,10.523,0,0,1-2.106.722,10.087,10.087,0,0,1-2.195.252,6.23,6.23,0,0,1-3.053-.736Z" transform="translate(-33.928 -8.204)" fill="#fff"/>
    <path id="Path_1517" data-name="Path 1517" d="M129.167,40.671a7.846,7.846,0,0,1-.136-1.159,3.8,3.8,0,0,1-1.2.934,3.578,3.578,0,0,1-1.677.388,3.149,3.149,0,0,1-1.363-.3,2.324,2.324,0,0,1-.981-.886,2.726,2.726,0,0,1-.361-1.452,2.488,2.488,0,0,1,.913-2.045,4.8,4.8,0,0,1,3.047-.757,11.172,11.172,0,0,1,1.588.116v-.184a2.208,2.208,0,0,0-.491-1.629,1.963,1.963,0,0,0-1.418-.477,5.3,5.3,0,0,0-1.363.191,6.611,6.611,0,0,0-1.275.443l-.32-1.459a7.566,7.566,0,0,1,1.411-.443,8.076,8.076,0,0,1,1.847-.2,4.771,4.771,0,0,1,1.922.348,2.5,2.5,0,0,1,1.227,1.186,4.873,4.873,0,0,1,.443,2.256v3.469c0,.361,0,.906.068,1.643Zm-1.2-1.622a3.142,3.142,0,0,0,1.022-.743V36.691a12.268,12.268,0,0,0-1.363-.089,2.726,2.726,0,0,0-1.711.4,1.363,1.363,0,0,0-.47,1.084,1.234,1.234,0,0,0,.341.961,1.363,1.363,0,0,0,.934.307,2.726,2.726,0,0,0,1.247-.3Z" transform="translate(-39.309 -9.55)" fill="#fff"/>
    <path id="Path_1518" data-name="Path 1518" d="M137.07,36.866V26.554l1.99-.164V36.511a1.247,1.247,0,0,0,.191.791.743.743,0,0,0,.6.232,2.515,2.515,0,0,0,.525-.089l.239,1.431a3.633,3.633,0,0,1-.682.184,5.282,5.282,0,0,1-.77.068C137.758,39.128,137.07,38.392,137.07,36.866Z" transform="translate(-43.648 -7.877)" fill="#fff"/>
    <path id="Path_1519" data-name="Path 1519" d="M144.37,36.866V26.554l1.99-.164V36.511a1.247,1.247,0,0,0,.191.791.743.743,0,0,0,.6.232,2.515,2.515,0,0,0,.525-.089l.239,1.431a3.632,3.632,0,0,1-.682.184,5.2,5.2,0,0,1-.77.068C145.058,39.128,144.37,38.392,144.37,36.866Z" transform="translate(-45.972 -7.877)" fill="#fff"/>
    <path id="Path_1520" data-name="Path 1520" d="M158.118,36.547H152.4q.143,2.726,2.617,2.726a5.452,5.452,0,0,0,1.261-.15,7.054,7.054,0,0,0,1.234-.4l.436,1.363a7.443,7.443,0,0,1-3.3.682,4.771,4.771,0,0,1-2.345-.532,3.408,3.408,0,0,1-1.438-1.513,5.364,5.364,0,0,1-.477-2.379,5.609,5.609,0,0,1,.511-2.488,3.68,3.68,0,0,1,1.418-1.595,3.974,3.974,0,0,1,2.1-.552,3.367,3.367,0,0,1,3.3,2.12,5.5,5.5,0,0,1,.4,2.126Zm-1.956-1.275a2.447,2.447,0,0,0-.525-1.561,1.609,1.609,0,0,0-1.254-.525,1.7,1.7,0,0,0-1.268.525,2.822,2.822,0,0,0-.682,1.561Z" transform="translate(-47.888 -9.537)" fill="#fff"/>
    <path id="Path_1521" data-name="Path 1521" d="M164.058,34.148c0-.484,0-1.213-.068-2.195h1.874c0,.239.061.532.089.866s.055.613.061.825a8.381,8.381,0,0,1,.682-.968,2.869,2.869,0,0,1,.791-.641,2.1,2.1,0,0,1,1.022-.245,2.951,2.951,0,0,1,.791.1l-.252,1.731a2.358,2.358,0,0,0-.647-.089,2.133,2.133,0,0,0-1.227.361,4.771,4.771,0,0,0-1.131,1.186v5.609h-1.99Z" transform="translate(-52.22 -9.566)" fill="#fff"/>
    <path id="Path_1522" data-name="Path 1522" d="M173.2,44.323a4.961,4.961,0,0,1-.722-.17l.368-1.459c.136.034.307.075.511.109a3.531,3.531,0,0,0,.579.055c.886,0,1.547-.573,1.99-1.711l.13-.32L172.834,32h2.14l1.622,4.921a18.484,18.484,0,0,1,.511,1.929c.15-.627.327-1.261.532-1.888L179.289,32H181.3l-3.21,8.86a9.058,9.058,0,0,1-.975,2.045,3.476,3.476,0,0,1-1.247,1.145,3.721,3.721,0,0,1-1.724.368,5.159,5.159,0,0,1-.941-.1Z" transform="translate(-54.923 -9.559)" fill="#fff"/>
    <g id="形状_1_拷贝_25" data-name="形状 1 拷贝 25" transform="translate(8.86 7.788)">
      <path id="Path_1523" data-name="Path 1523" d="M31.552,10.83H20.266C14.942,10.83,13,12.772,13,18.089V29.348c0,5.316,1.942,7.266,7.266,7.266h11.28c5.309.027,7.266-1.922,7.266-7.266V18.089C38.811,12.772,36.855,10.83,31.552,10.83Z" transform="translate(-13 -10.83)" fill="#ce0e2d" fill-rule="evenodd"/>
    </g>
    <path id="Path_1524" data-name="Path 1524" d="M19.459,29.767h.682v3.374h-.682V31.777H17.912v1.363H17.23V29.767h.682V31.13h1.547ZM23.316,31.7c0,.552-.273.845-.77.845s-.77-.307-.77-.866V29.767h-.682V31.7a1.45,1.45,0,1,0,2.89-.027v-1.9H23.3Zm7.913.388-.77-2.317H29.9l-.763,2.317-.743-2.317h-.729l1.172,3.374H29.4l.77-2.215.77,2.215h.566l1.179-3.374h-.682Zm2.685-.4h1.24v-.613h-1.24v-.682h1.806V29.78H33.24v3.367h2.542v-.613H33.915ZM36.6,33.134h.682V29.767H36.6Zm-11.246-.682-.307.682h-.682l1.486-3.374h.607l1.479,3.374h-.682l-.307-.682Zm.252-.607h1.009l-.491-1.24Z" transform="translate(-5.487 -9.032)" fill="#fff"/>
    <path id="Path_1525" data-name="Path 1525" d="M29.931,21.454a4.3,4.3,0,0,1-4.3-4.294h.607a3.694,3.694,0,0,0,7.381,0h.607a4.3,4.3,0,0,1-4.294,4.294Z" transform="translate(-8.161 -5.202)" fill="#fff"/>
    <path id="Path_1526" data-name="Path 1526" d="M64.939,16.6a2.461,2.461,0,0,1-.988-1.022,3.292,3.292,0,0,1-.341-1.527,3.326,3.326,0,0,1,.368-1.6,2.474,2.474,0,0,1,1.043-1.056A3.265,3.265,0,0,1,66.6,11a3.094,3.094,0,0,1,1.534.361,2.392,2.392,0,0,1,.981,1.016,3.285,3.285,0,0,1,.334,1.52,3.367,3.367,0,0,1-.368,1.615,2.529,2.529,0,0,1-1.05,1.056,3.21,3.21,0,0,1-1.595.375A3.1,3.1,0,0,1,64.939,16.6Zm2.549-.832a1.608,1.608,0,0,0,.579-.682,2.808,2.808,0,0,0,.2-1.077,2.971,2.971,0,0,0-.17-1.05,1.568,1.568,0,0,0-.552-.743,1.738,1.738,0,0,0-2.522.757,2.665,2.665,0,0,0-.2,1.029,2.8,2.8,0,0,0,.191,1.07,1.636,1.636,0,0,0,.566.7,1.588,1.588,0,0,0,.947.273A1.677,1.677,0,0,0,67.488,15.77Z" transform="translate(-20.255 -3.326)" fill="#fff"/>
    <path id="Path_1527" data-name="Path 1527" d="M74,11.149h2a3.8,3.8,0,0,1,1.6.307,2.208,2.208,0,0,1,1.016.913,2.835,2.835,0,0,1,.354,1.472,3.408,3.408,0,0,1-.368,1.595,2.726,2.726,0,0,1-1.063,1.1,3.231,3.231,0,0,1-1.636.4H74Zm1.84,4.88a1.956,1.956,0,0,0,1.063-.273,1.731,1.731,0,0,0,.647-.763,2.726,2.726,0,0,0,.218-1.111,1.833,1.833,0,0,0-.47-1.363,1.854,1.854,0,0,0-1.363-.463h-.777v3.98Z" transform="translate(-23.564 -3.372)" fill="#fff"/>
    <path id="Path_1528" data-name="Path 1528" d="M83.067,11.15h1.159v2.829l.1-.129c.055-.061.109-.143.177-.232l.232-.314L86.3,11.15h1.281L85.63,13.679l2.12,3.251H86.427L84.9,14.456l-.682.729v1.731H83.06Z" transform="translate(-26.449 -3.373)" fill="#fff"/>
    <path id="Path_1529" data-name="Path 1529" d="M91.16,11.147h1.929a2.488,2.488,0,0,1,1.554.4,1.363,1.363,0,0,1,.491,1.138,1.738,1.738,0,0,1-.62,1.363,1.936,1.936,0,0,1-.538.32l1.765,2.549H94.377L92.946,14.67H92.3V16.92H91.14Zm1.649,2.672a1.268,1.268,0,0,0,.593-.129.886.886,0,0,0,.4-.361,1.043,1.043,0,0,0,.143-.552A.682.682,0,0,0,93.7,12.2a1.165,1.165,0,0,0-.729-.191h-.647v1.813Z" transform="translate(-29.022 -3.37)" fill="#fff"/>
    <path id="Path_1530" data-name="Path 1530" d="M99.7,14.7,97.81,11.15h1.24l.872,1.718a5.781,5.781,0,0,1,.368.879c.082-.191.218-.47.4-.838l.913-1.758h1.1l-1.9,3.551V16.93H99.671Z" transform="translate(-31.146 -3.373)" fill="#fff"/>
    <path id="Path_1531" data-name="Path 1531" d="M105.34,11.15h1.234l.927,3.483c.082.307.15.627.2.954.089-.388.17-.682.245-.975l.988-3.462h1.206l1.043,3.49a8.059,8.059,0,0,1,.232.947c.048-.252.116-.559.211-.906l.9-3.531H113.7l-1.718,5.78h-1.2l-.975-3.272c-.068-.218-.123-.416-.164-.6s-.082-.388-.123-.613c-.041.218-.089.416-.13.6s-.1.375-.157.593l-.954,3.292h-1.193Z" transform="translate(-33.544 -3.373)" fill="#fff"/>
    <path id="Path_1532" data-name="Path 1532" d="M121.575,15.461h-2.208l-.525,1.465H117.67l2.27-5.787h1.145l2.263,5.787h-1.24Zm-1.888-.893h1.568l-.559-1.527c-.075-.211-.157-.457-.232-.743-.068.239-.143.477-.232.736Z" transform="translate(-37.47 -3.37)" fill="#fff"/>
    <path id="Path_1533" data-name="Path 1533" d="M126.5,16.923l.075-.913a1.6,1.6,0,0,0,.348.041.8.8,0,0,0,.5-.136.757.757,0,0,0,.259-.4,2.638,2.638,0,0,0,.075-.682V11.15h1.125v3.762a2.379,2.379,0,0,1-.436,1.547,1.718,1.718,0,0,1-1.363.525A2.644,2.644,0,0,1,126.5,16.923Z" transform="translate(-40.282 -3.372)" fill="#fff"/>
    <path id="Path_1534" data-name="Path 1534" d="M135.22,11.15h1.213l.927,3.483c.082.307.15.627.2.954.089-.388.17-.682.245-.975l.988-3.462H140l1.043,3.49a8.056,8.056,0,0,1,.232.947c.048-.252.116-.559.211-.906l.9-3.531h1.165l-1.67,5.78h-1.227l-.975-3.272c-.068-.218-.123-.416-.164-.6s-.082-.388-.123-.613l-.13.6q-.061.266-.164.593l-.947,3.292h-1.193Z" transform="translate(-43.058 -3.373)" fill="#fff"/>
  </g>
</svg>
