<svg width="24" height="26" viewBox="0 0 24 26" fill="none" xmlns="http://www.w3.org/2000/svg">
<path d="M6.54553 10.6228C6.54553 9.56247 6.87033 8.52455 7.48088 7.64019C8.09157 6.75562 8.96132 6.06377 9.98198 5.6546C11.0028 5.24538 12.1269 5.13807 13.2116 5.34689C14.2962 5.55569 15.2903 6.0707 16.069 6.82438C16.8476 7.5779 17.3758 8.53591 17.5897 9.57635C17.8035 10.6167 17.6939 11.6952 17.274 12.6762C16.8541 13.6574 16.1418 14.4988 15.2246 15.0919C14.3073 15.6851 13.2271 16.0027 12.1208 16.0027C10.637 16.0027 9.21709 15.432 8.17268 14.4212C7.12882 13.411 6.54553 12.0443 6.54553 10.6228Z" stroke="#0D0D0D"/>
<path d="M2.01981 10.3958C2.18349 7.92429 3.25917 5.592 5.05084 3.82385C5.95705 2.92973 7.03838 2.21947 8.23158 1.73461C9.42477 1.24974 10.7059 1 12 1C13.2941 1 14.5752 1.24974 15.7684 1.73461C16.9616 2.21947 18.0429 2.92973 18.9491 3.82385C20.7407 5.59205 21.8164 7.92431 21.9801 10.3958C22.0678 11.7442 21.8646 13.0956 21.3835 14.3639C20.8747 15.6873 20.0943 16.8974 19.0895 17.9211L12.5045 24.7865C12.4402 24.8538 12.3622 24.9076 12.2754 24.9443C12.1886 24.981 12.0949 25 12.0002 25C11.9055 25 11.8118 24.981 11.725 24.9443C11.6383 24.9076 11.5603 24.8538 11.496 24.7865L4.91066 17.9216C3.90586 16.8978 3.12547 15.6879 2.61646 14.3645C2.13547 13.0959 1.93229 11.7444 2.01981 10.3958V10.3958Z" stroke="#3C1400" stroke-miterlimit="10"/>
</svg>