<svg xmlns="http://www.w3.org/2000/svg" width="180" height="29" viewBox="0 0 180 29">
  <g id="Warstwa_2" data-name="Warstwa 2" transform="translate(0.01)">
    <g id="Warstwa_1" data-name="Warstwa 1" transform="translate(-0.01)">
      <path id="Path_2528" data-name="Path 2528" d="M17.111,35.42a8.56,8.56,0,1,0-8.56,8.56,8.56,8.56,0,0,0,8.56-8.56" transform="translate(0.01 -21.132)" fill="#ff503c"/>
      <path id="Path_2529" data-name="Path 2529" d="M108.794,14.367A14.267,14.267,0,1,0,94.528,28.634a14.267,14.267,0,0,0,14.266-14.267" transform="translate(-63.142 -0.079)" fill="#ff503c"/>
      <path id="Path_2530" data-name="Path 2530" d="M225.474,45.947a5.707,5.707,0,1,0-5.707,5.707,5.707,5.707,0,0,0,5.707-5.707" transform="translate(-168.407 -31.658)" fill="#ff503c"/>
      <path id="Path_2531" data-name="Path 2531" d="M321.19,22.011h4.191l.365,1.821h.181a5.255,5.255,0,0,1,1.094-1.092,5.391,5.391,0,0,1,3.278-1.094,6.244,6.244,0,0,1,3.9,1.28,6.625,6.625,0,0,1,1.2,1.28h.183a7.174,7.174,0,0,1,1.312-1.28,7.012,7.012,0,0,1,4.152-1.28,7.168,7.168,0,0,1,6.922,7.464V40.586h-4.553V29.479c0-2.367-1.239-3.642-3.1-3.642a3.46,3.46,0,0,0-3.461,3.642V40.592H332.3V29.479c0-2.367-1.239-3.642-3.1-3.642a3.459,3.459,0,0,0-3.461,3.642V40.592H321.19Z" transform="translate(-252.691 -17.029)" fill="#3c1400"/>
      <path id="Path_2532" data-name="Path 2532" d="M472.271,31.306c0-3.28-2.186-5.466-4.92-5.466s-4.918,2.186-4.918,5.466,2.186,5.464,4.918,5.464,4.92-2.186,4.92-5.464m4.553,0a9.474,9.474,0,1,1-18.944,0,9.474,9.474,0,1,1,18.944,0" transform="translate(-360.23 -17.033)" fill="#3c1400"/>
      <path id="Path_2533" data-name="Path 2533" d="M626.9,29.674c-.4-2.367-1.968-4.191-4.555-4.191-2.772,0-4.372,1.823-4.918,4.191Zm4.007,5.466a8.671,8.671,0,0,1-8.562,5.828,9.236,9.236,0,0,1-9.473-9.654,9.236,9.236,0,0,1,9.473-9.654,9.061,9.061,0,0,1,9.108,9.29,10.52,10.52,0,0,1-.109,1.312l-.073.51H617.425a4.9,4.9,0,0,0,4.918,4.372,4.251,4.251,0,0,0,3.826-2Z" transform="translate(-482.167 -17.041)" fill="#3c1400"/>
      <path id="Path_2534" data-name="Path 2534" d="M712.27,0h4.555V19.375h3.826v4.188h-3.826c-2.915,0-4.555-1.6-4.555-4.372Z" transform="translate(-560.369)" fill="#3c1400"/>
      <path id="Path_2535" data-name="Path 2535" d="M558.61,23.3h3.839l.367,1.642H563a4.217,4.217,0,0,1,.8-.8,4.079,4.079,0,0,1,2.48-.838h3v4.378h-2.649c-2.3,0-3.465,1.167-3.465,3.465V41.909H558.61Z" transform="translate(-439.479 -18.331)" fill="#3c1400"/>
      <path id="Path_2536" data-name="Path 2536" d="M770.928,29.674c-.4-2.367-1.968-4.191-4.555-4.191-2.772,0-4.372,1.823-4.918,4.191Zm4.007,5.466a8.671,8.671,0,0,1-8.562,5.828,9.235,9.235,0,0,1-9.473-9.654,9.235,9.235,0,0,1,9.473-9.654,9.061,9.061,0,0,1,9.108,9.29,10.508,10.508,0,0,1-.109,1.312l-.072.51H761.455a4.9,4.9,0,0,0,4.918,4.372,4.252,4.252,0,0,0,3.826-2Z" transform="translate(-595.481 -17.041)" fill="#3c1400"/>
    </g>
  </g>
</svg>
